<?xml version="1.0" encoding="UTF-8"?>
<svg xmlns="http://www.w3.org/2000/svg" xmlns:xlink="http://www.w3.org/1999/xlink" width="251.223" height="106.682" viewBox="0 0 251.223 106.682">
<defs>
<g>
<g id="glyph-0-0">
<path d="M 6.234375 -3.3125 L 6.234375 -3.765625 C 6.234375 -4.453125 6.109375 -5.0625 5.875 -5.578125 C 5.640625 -6.09375 5.3125 -6.484375 4.890625 -6.765625 C 4.453125 -7.046875 3.953125 -7.1875 3.375 -7.1875 C 2.828125 -7.1875 2.328125 -7.046875 1.890625 -6.765625 C 1.453125 -6.484375 1.125 -6.078125 0.890625 -5.5625 C 0.640625 -5.046875 0.53125 -4.4375 0.53125 -3.765625 L 0.53125 -3.25 C 0.53125 -2.578125 0.65625 -2 0.890625 -1.484375 C 1.140625 -0.984375 1.46875 -0.59375 1.90625 -0.3125 C 2.328125 -0.03125 2.828125 0.09375 3.390625 0.09375 C 3.65625 0.09375 3.890625 0.0625 4.125 0.015625 L 5.625 1.203125 L 6.265625 0.609375 L 5 -0.390625 C 5.390625 -0.671875 5.6875 -1.046875 5.90625 -1.546875 C 6.125 -2.046875 6.234375 -2.625 6.234375 -3.3125 Z M 5.296875 -3.765625 L 5.296875 -3.25 C 5.28125 -2.421875 5.109375 -1.796875 4.78125 -1.359375 C 4.453125 -0.921875 3.984375 -0.703125 3.390625 -0.703125 C 2.78125 -0.703125 2.3125 -0.921875 1.96875 -1.390625 C 1.640625 -1.859375 1.46875 -2.5 1.46875 -3.3125 L 1.46875 -3.84375 C 1.46875 -4.640625 1.640625 -5.25 1.984375 -5.703125 C 2.328125 -6.15625 2.796875 -6.375 3.375 -6.375 C 4 -6.375 4.46875 -6.15625 4.8125 -5.6875 C 5.140625 -5.234375 5.296875 -4.59375 5.296875 -3.765625 Z M 5.296875 -3.765625 "/>
</g>
<g id="glyph-0-1">
<path d="M 4.734375 -1.859375 L 5.40625 0 L 6.375 0 L 3.65625 -7.09375 L 2.84375 -7.09375 L 0.140625 0 L 1.09375 0 L 1.765625 -1.859375 Z M 2.046875 -2.625 L 3.25 -5.9375 L 4.453125 -2.625 Z M 2.046875 -2.625 "/>
</g>
<g id="glyph-0-2">
<path d="M 6.046875 -0.921875 L 6.046875 -3.53125 L 3.484375 -3.53125 L 3.484375 -2.765625 L 5.125 -2.765625 L 5.125 -1.171875 C 4.9375 -0.984375 4.71875 -0.859375 4.46875 -0.78125 C 4.203125 -0.703125 3.890625 -0.671875 3.546875 -0.671875 C 2.9375 -0.671875 2.4375 -0.890625 2.078125 -1.359375 C 1.71875 -1.828125 1.53125 -2.46875 1.53125 -3.265625 L 1.53125 -3.84375 C 1.53125 -4.671875 1.6875 -5.3125 2.03125 -5.75 C 2.34375 -6.1875 2.828125 -6.421875 3.453125 -6.421875 C 4.390625 -6.40625 4.9375 -5.9375 5.125 -5 L 6.046875 -5 C 5.953125 -5.703125 5.671875 -6.234375 5.21875 -6.625 C 4.765625 -7 4.171875 -7.1875 3.4375 -7.1875 C 2.53125 -7.1875 1.828125 -6.890625 1.328125 -6.296875 C 0.84375 -5.71875 0.59375 -4.890625 0.59375 -3.8125 L 0.59375 -3.203125 C 0.59375 -2.546875 0.734375 -1.96875 0.96875 -1.46875 C 1.203125 -0.96875 1.5625 -0.578125 2 -0.3125 C 2.453125 -0.03125 2.96875 0.09375 3.546875 0.09375 C 4.109375 0.09375 4.609375 0.015625 5.046875 -0.15625 C 5.46875 -0.3125 5.8125 -0.578125 6.046875 -0.921875 Z M 6.046875 -0.921875 "/>
</g>
<g id="glyph-0-3">
<path d="M 0.703125 -0.46875 C 0.703125 -0.3125 0.734375 -0.203125 0.84375 -0.09375 C 0.921875 0 1.0625 0.046875 1.25 0.046875 C 1.4375 0.046875 1.578125 0 1.671875 -0.09375 C 1.78125 -0.203125 1.828125 -0.3125 1.828125 -0.46875 C 1.828125 -0.625 1.78125 -0.75 1.671875 -0.859375 C 1.578125 -0.953125 1.4375 -1.015625 1.25 -1.015625 C 1.0625 -1.015625 0.921875 -0.953125 0.84375 -0.859375 C 0.734375 -0.75 0.703125 -0.625 0.703125 -0.46875 Z M 0.703125 -0.46875 "/>
</g>
<g id="glyph-1-0">
<path d="M 1.578125 -7.125 C 1.578125 -7.296875 1.578125 -7.484375 1.390625 -7.484375 C 1.1875 -7.484375 1.1875 -7.296875 1.1875 -7.125 L 1.1875 2.140625 C 1.1875 2.3125 1.1875 2.5 1.390625 2.5 C 1.578125 2.5 1.578125 2.3125 1.578125 2.140625 Z M 1.578125 -7.125 "/>
</g>
<g id="glyph-1-1">
<path d="M 2.71875 -2.328125 C 2.765625 -2.4375 2.765625 -2.46875 2.765625 -2.5 C 2.765625 -2.515625 2.765625 -2.546875 2.71875 -2.65625 L 0.984375 -7.25 C 0.921875 -7.421875 0.859375 -7.484375 0.75 -7.484375 C 0.640625 -7.484375 0.546875 -7.390625 0.546875 -7.28125 C 0.546875 -7.25 0.546875 -7.234375 0.59375 -7.125 L 2.359375 -2.5 L 0.59375 2.109375 C 0.546875 2.21875 0.546875 2.25 0.546875 2.296875 C 0.546875 2.40625 0.640625 2.5 0.75 2.5 C 0.875 2.5 0.921875 2.390625 0.953125 2.296875 Z M 2.71875 -2.328125 "/>
</g>
<g id="glyph-1-2">
<path d="M 8.28125 -6.4375 C 8.28125 -6.890625 7.5 -6.8125 7.203125 -6.8125 L 3.4375 -6.8125 C 2.9375 -6.8125 2.046875 -6.53125 1.890625 -5.984375 C 1.90625 -5.9375 1.9375 -5.921875 2 -5.921875 C 2.21875 -5.921875 2.515625 -6.09375 2.65625 -6.25 C 2.953125 -6.25 3.265625 -6.265625 3.5625 -6.265625 L 4.1875 -6.265625 C 4.1875 -6.265625 4.140625 -6.09375 4.140625 -6.078125 C 3.765625 -4.25 3.171875 -2.71875 2.734375 -1.734375 C 2.671875 -1.609375 2.140625 -0.359375 2 -0.234375 C 1.5625 -0.234375 1.21875 -0.484375 1.046875 -0.875 C 1.015625 -0.921875 1.015625 -0.96875 0.953125 -0.96875 C 0.71875 -0.96875 0.171875 -0.640625 0.171875 -0.484375 C 0.171875 -0.453125 0.171875 -0.4375 0.1875 -0.421875 C 0.375 0.046875 0.8125 0.3125 1.3125 0.3125 C 1.8125 0.3125 2.40625 -0.046875 2.71875 -0.421875 C 3.046875 -0.796875 3.703125 -2.4375 3.96875 -3.03125 L 5.890625 -3.03125 C 5.875 -3.015625 5.875 -3.015625 5.875 -3 C 5.875 -2.953125 5.9375 -2.9375 5.96875 -2.9375 C 6.1875 -2.9375 6.765625 -3.203125 6.765625 -3.515625 C 6.765625 -3.59375 6.6875 -3.578125 6.5625 -3.578125 L 4.171875 -3.578125 C 4.4375 -4.46875 4.78125 -5.359375 4.953125 -6.265625 L 6.265625 -6.265625 C 6.515625 -6.265625 7.21875 -6.3125 7.390625 -6.09375 C 7.421875 -6.046875 7.390625 -5.9375 7.421875 -5.890625 C 7.4375 -5.875 7.46875 -5.859375 7.5 -5.859375 C 7.734375 -5.859375 8.28125 -6.15625 8.28125 -6.4375 Z M 8.28125 -6.4375 "/>
</g>
<g id="glyph-2-0">
<path d="M 4.578125 -3.1875 C 4.578125 -3.984375 4.53125 -4.78125 4.1875 -5.515625 C 3.734375 -6.484375 2.90625 -6.640625 2.5 -6.640625 C 1.890625 -6.640625 1.171875 -6.375 0.75 -5.453125 C 0.4375 -4.765625 0.390625 -3.984375 0.390625 -3.1875 C 0.390625 -2.4375 0.421875 -1.546875 0.84375 -0.78125 C 1.265625 0.015625 2 0.21875 2.484375 0.21875 C 3.015625 0.21875 3.78125 0.015625 4.21875 -0.9375 C 4.53125 -1.625 4.578125 -2.40625 4.578125 -3.1875 Z M 2.484375 0 C 2.09375 0 1.5 -0.25 1.328125 -1.203125 C 1.21875 -1.796875 1.21875 -2.71875 1.21875 -3.3125 C 1.21875 -3.953125 1.21875 -4.609375 1.296875 -5.140625 C 1.484375 -6.328125 2.234375 -6.421875 2.484375 -6.421875 C 2.8125 -6.421875 3.46875 -6.234375 3.65625 -5.25 C 3.765625 -4.6875 3.765625 -3.9375 3.765625 -3.3125 C 3.765625 -2.5625 3.765625 -1.890625 3.65625 -1.25 C 3.5 -0.296875 2.9375 0 2.484375 0 Z M 2.484375 0 "/>
</g>
<g id="glyph-2-1">
<path d="M 3.296875 2.390625 C 3.296875 2.359375 3.296875 2.34375 3.125 2.171875 C 1.890625 0.921875 1.5625 -0.96875 1.5625 -2.5 C 1.5625 -4.234375 1.9375 -5.96875 3.171875 -7.203125 C 3.296875 -7.328125 3.296875 -7.34375 3.296875 -7.375 C 3.296875 -7.453125 3.265625 -7.484375 3.203125 -7.484375 C 3.09375 -7.484375 2.203125 -6.796875 1.609375 -5.53125 C 1.109375 -4.4375 0.984375 -3.328125 0.984375 -2.5 C 0.984375 -1.71875 1.09375 -0.515625 1.640625 0.625 C 2.25 1.84375 3.09375 2.5 3.203125 2.5 C 3.265625 2.5 3.296875 2.46875 3.296875 2.390625 Z M 3.296875 2.390625 "/>
</g>
<g id="glyph-2-2">
<path d="M 2.875 -2.5 C 2.875 -3.265625 2.765625 -4.46875 2.21875 -5.609375 C 1.625 -6.828125 0.765625 -7.484375 0.671875 -7.484375 C 0.609375 -7.484375 0.5625 -7.4375 0.5625 -7.375 C 0.5625 -7.34375 0.5625 -7.328125 0.75 -7.140625 C 1.734375 -6.15625 2.296875 -4.578125 2.296875 -2.5 C 2.296875 -0.78125 1.9375 0.96875 0.703125 2.21875 C 0.5625 2.34375 0.5625 2.359375 0.5625 2.390625 C 0.5625 2.453125 0.609375 2.5 0.671875 2.5 C 0.765625 2.5 1.671875 1.8125 2.25 0.546875 C 2.765625 -0.546875 2.875 -1.65625 2.875 -2.5 Z M 2.875 -2.5 "/>
</g>
<g id="glyph-3-0">
<path d="M 3.328125 -3.015625 C 3.390625 -3.265625 3.625 -4.1875 4.3125 -4.1875 C 4.359375 -4.1875 4.609375 -4.1875 4.8125 -4.0625 C 4.53125 -4 4.34375 -3.765625 4.34375 -3.515625 C 4.34375 -3.359375 4.453125 -3.171875 4.71875 -3.171875 C 4.9375 -3.171875 5.25 -3.34375 5.25 -3.75 C 5.25 -4.265625 4.671875 -4.40625 4.328125 -4.40625 C 3.75 -4.40625 3.40625 -3.875 3.28125 -3.65625 C 3.03125 -4.3125 2.5 -4.40625 2.203125 -4.40625 C 1.171875 -4.40625 0.59375 -3.125 0.59375 -2.875 C 0.59375 -2.765625 0.703125 -2.765625 0.71875 -2.765625 C 0.796875 -2.765625 0.828125 -2.796875 0.84375 -2.875 C 1.1875 -3.9375 1.84375 -4.1875 2.1875 -4.1875 C 2.375 -4.1875 2.71875 -4.09375 2.71875 -3.515625 C 2.71875 -3.203125 2.546875 -2.546875 2.1875 -1.140625 C 2.03125 -0.53125 1.671875 -0.109375 1.234375 -0.109375 C 1.171875 -0.109375 0.953125 -0.109375 0.734375 -0.234375 C 0.984375 -0.296875 1.203125 -0.5 1.203125 -0.78125 C 1.203125 -1.046875 0.984375 -1.125 0.84375 -1.125 C 0.53125 -1.125 0.296875 -0.875 0.296875 -0.546875 C 0.296875 -0.09375 0.78125 0.109375 1.21875 0.109375 C 1.890625 0.109375 2.25 -0.59375 2.265625 -0.640625 C 2.390625 -0.28125 2.75 0.109375 3.34375 0.109375 C 4.375 0.109375 4.9375 -1.171875 4.9375 -1.421875 C 4.9375 -1.53125 4.859375 -1.53125 4.828125 -1.53125 C 4.734375 -1.53125 4.71875 -1.484375 4.6875 -1.421875 C 4.359375 -0.34375 3.6875 -0.109375 3.375 -0.109375 C 2.984375 -0.109375 2.828125 -0.421875 2.828125 -0.765625 C 2.828125 -0.984375 2.875 -1.203125 2.984375 -1.640625 Z M 3.328125 -3.015625 "/>
</g>
<g id="glyph-3-1">
<path d="M 6.328125 -5.765625 C 6.4375 -6.171875 6.609375 -6.46875 7.40625 -6.5 C 7.453125 -6.5 7.578125 -6.515625 7.578125 -6.703125 C 7.578125 -6.703125 7.578125 -6.8125 7.453125 -6.8125 C 7.125 -6.8125 6.765625 -6.78125 6.4375 -6.78125 C 6.09375 -6.78125 5.71875 -6.8125 5.390625 -6.8125 C 5.328125 -6.8125 5.21875 -6.8125 5.21875 -6.609375 C 5.21875 -6.5 5.3125 -6.5 5.390625 -6.5 C 5.96875 -6.484375 6.078125 -6.28125 6.078125 -6.0625 C 6.078125 -6.03125 6.046875 -5.875 6.046875 -5.859375 L 5.140625 -2.296875 C 4.8125 -0.953125 3.65625 -0.09375 2.65625 -0.09375 C 1.984375 -0.09375 1.453125 -0.53125 1.453125 -1.390625 C 1.453125 -1.40625 1.453125 -1.71875 1.5625 -2.15625 L 2.515625 -6.046875 C 2.609375 -6.40625 2.625 -6.5 3.359375 -6.5 C 3.625 -6.5 3.703125 -6.5 3.703125 -6.703125 C 3.703125 -6.8125 3.59375 -6.8125 3.5625 -6.8125 C 3.28125 -6.8125 2.5625 -6.78125 2.28125 -6.78125 C 2 -6.78125 1.28125 -6.8125 1 -6.8125 C 0.921875 -6.8125 0.8125 -6.8125 0.8125 -6.609375 C 0.8125 -6.5 0.890625 -6.5 1.09375 -6.5 C 1.109375 -6.5 1.296875 -6.5 1.46875 -6.484375 C 1.640625 -6.453125 1.734375 -6.453125 1.734375 -6.3125 C 1.734375 -6.265625 1.625 -5.84375 1.5625 -5.609375 L 1.34375 -4.734375 C 1.25 -4.34375 0.78125 -2.46875 0.734375 -2.265625 C 0.671875 -2 0.671875 -1.84375 0.671875 -1.6875 C 0.671875 -0.484375 1.578125 0.21875 2.625 0.21875 C 3.875 0.21875 5.109375 -0.90625 5.4375 -2.21875 Z M 6.328125 -5.765625 "/>
</g>
<g id="glyph-3-2">
<path d="M 5.359375 -5.9375 C 5.21875 -5.796875 4.890625 -5.515625 4.890625 -5.34375 C 4.890625 -5.25 4.984375 -5.140625 5.078125 -5.140625 C 5.171875 -5.140625 5.21875 -5.21875 5.28125 -5.28125 C 5.390625 -5.421875 5.625 -5.703125 6.0625 -5.921875 C 6.125 -5.96875 6.234375 -6.015625 6.234375 -6.125 C 6.234375 -6.234375 6.15625 -6.28125 6.09375 -6.328125 C 5.875 -6.484375 5.765625 -6.65625 5.6875 -6.890625 C 5.65625 -6.984375 5.625 -7.125 5.484375 -7.125 C 5.34375 -7.125 5.28125 -6.984375 5.28125 -6.90625 C 5.28125 -6.859375 5.359375 -6.546875 5.515625 -6.328125 L 2.15625 -6.328125 C 2 -6.328125 1.8125 -6.328125 1.8125 -6.125 C 1.8125 -5.9375 2 -5.9375 2.15625 -5.9375 Z M 5.359375 -5.9375 "/>
</g>
<g id="glyph-3-3">
<path d="M 4.53125 -4.984375 C 4.53125 -5.640625 4.359375 -7.03125 3.34375 -7.03125 C 1.953125 -7.03125 0.421875 -4.21875 0.421875 -1.9375 C 0.421875 -1 0.703125 0.109375 1.609375 0.109375 C 3.015625 0.109375 4.53125 -2.75 4.53125 -4.984375 Z M 1.46875 -3.625 C 1.640625 -4.25 1.84375 -5.046875 2.25 -5.765625 C 2.515625 -6.25 2.875 -6.8125 3.328125 -6.8125 C 3.8125 -6.8125 3.875 -6.171875 3.875 -5.609375 C 3.875 -5.109375 3.796875 -4.609375 3.5625 -3.625 Z M 3.46875 -3.296875 C 3.359375 -2.84375 3.15625 -2 2.765625 -1.28125 C 2.421875 -0.59375 2.046875 -0.109375 1.609375 -0.109375 C 1.28125 -0.109375 1.078125 -0.40625 1.078125 -1.328125 C 1.078125 -1.75 1.140625 -2.328125 1.390625 -3.296875 Z M 3.46875 -3.296875 "/>
</g>
<g id="glyph-4-0">
<path d="M 2.328125 -4.4375 C 2.328125 -4.625 2.328125 -4.625 2.125 -4.625 C 1.671875 -4.1875 1.046875 -4.1875 0.765625 -4.1875 L 0.765625 -3.9375 C 0.921875 -3.9375 1.390625 -3.9375 1.765625 -4.125 L 1.765625 -0.578125 C 1.765625 -0.34375 1.765625 -0.25 1.078125 -0.25 L 0.8125 -0.25 L 0.8125 0 C 0.9375 0 1.796875 -0.03125 2.046875 -0.03125 C 2.265625 -0.03125 3.140625 0 3.296875 0 L 3.296875 -0.25 L 3.03125 -0.25 C 2.328125 -0.25 2.328125 -0.34375 2.328125 -0.578125 Z M 2.328125 -4.4375 "/>
</g>
<g id="glyph-4-1">
<path d="M 3.515625 -1.265625 L 3.28125 -1.265625 C 3.265625 -1.109375 3.1875 -0.703125 3.09375 -0.640625 C 3.046875 -0.59375 2.515625 -0.59375 2.40625 -0.59375 L 1.125 -0.59375 C 1.859375 -1.234375 2.109375 -1.4375 2.515625 -1.765625 C 3.03125 -2.171875 3.515625 -2.609375 3.515625 -3.265625 C 3.515625 -4.109375 2.78125 -4.625 1.890625 -4.625 C 1.03125 -4.625 0.4375 -4.015625 0.4375 -3.375 C 0.4375 -3.03125 0.734375 -2.984375 0.8125 -2.984375 C 0.96875 -2.984375 1.171875 -3.109375 1.171875 -3.359375 C 1.171875 -3.484375 1.125 -3.734375 0.765625 -3.734375 C 0.984375 -4.21875 1.453125 -4.375 1.78125 -4.375 C 2.484375 -4.375 2.84375 -3.828125 2.84375 -3.265625 C 2.84375 -2.65625 2.40625 -2.1875 2.1875 -1.9375 L 0.515625 -0.265625 C 0.4375 -0.203125 0.4375 -0.1875 0.4375 0 L 3.3125 0 Z M 3.515625 -1.265625 "/>
</g>
<g id="glyph-5-0">
<path d="M 5.8125 -4 C 5.875 -4.265625 6 -4.5 6.546875 -4.515625 C 6.578125 -4.515625 6.6875 -4.515625 6.6875 -4.65625 C 6.6875 -4.703125 6.65625 -4.765625 6.578125 -4.765625 C 6.359375 -4.765625 6.09375 -4.734375 5.859375 -4.734375 C 5.6875 -4.734375 5.296875 -4.765625 5.125 -4.765625 C 5.09375 -4.765625 4.984375 -4.765625 4.984375 -4.609375 C 4.984375 -4.515625 5.078125 -4.515625 5.140625 -4.515625 C 5.46875 -4.5 5.578125 -4.390625 5.578125 -4.21875 C 5.578125 -4.171875 5.578125 -4.125 5.546875 -4.0625 L 4.796875 -1.015625 L 3.03125 -4.640625 C 2.96875 -4.765625 2.953125 -4.765625 2.78125 -4.765625 L 1.828125 -4.765625 C 1.703125 -4.765625 1.609375 -4.765625 1.609375 -4.609375 C 1.609375 -4.515625 1.6875 -4.515625 1.84375 -4.515625 C 1.984375 -4.515625 2.140625 -4.5 2.28125 -4.46875 L 1.359375 -0.75 C 1.296875 -0.484375 1.171875 -0.265625 0.625 -0.25 C 0.578125 -0.25 0.484375 -0.25 0.484375 -0.109375 C 0.484375 -0.03125 0.53125 0 0.578125 0 C 0.8125 0 1.078125 -0.03125 1.3125 -0.03125 C 1.484375 -0.03125 1.875 0 2.046875 0 C 2.125 0 2.1875 -0.03125 2.1875 -0.140625 C 2.1875 -0.25 2.109375 -0.25 2.03125 -0.25 C 1.59375 -0.265625 1.59375 -0.453125 1.59375 -0.546875 C 1.59375 -0.578125 1.59375 -0.609375 1.609375 -0.71875 L 2.515625 -4.28125 L 4.546875 -0.125 C 4.59375 0 4.625 0 4.703125 0 C 4.8125 0 4.8125 -0.015625 4.84375 -0.140625 Z M 5.8125 -4 "/>
</g>
</g>
<clipPath id="clip-0">
<path clip-rule="nonzero" d="M 98 5 L 219 5 L 219 106.683594 L 98 106.683594 Z M 98 5 "/>
</clipPath>
<clipPath id="clip-1">
<path clip-rule="nonzero" d="M 215.640625 27.34375 L 235.566406 27.34375 L 235.566406 42.289062 L 215.640625 42.289062 Z M 215.640625 27.34375 "/>
</clipPath>
<clipPath id="clip-2">
<path clip-rule="nonzero" d="M 218 27.34375 L 235.566406 27.34375 L 235.566406 42.289062 L 218 42.289062 Z M 218 27.34375 "/>
</clipPath>
<clipPath id="clip-3">
<path clip-rule="nonzero" d="M 215.640625 44.351562 L 235.566406 44.351562 L 235.566406 59.296875 L 215.640625 59.296875 Z M 215.640625 44.351562 "/>
</clipPath>
<clipPath id="clip-4">
<path clip-rule="nonzero" d="M 218 44.351562 L 235.566406 44.351562 L 235.566406 59.296875 L 218 59.296875 Z M 218 44.351562 "/>
</clipPath>
<clipPath id="clip-5">
<path clip-rule="nonzero" d="M 215.640625 78.367188 L 235.566406 78.367188 L 235.566406 93.3125 L 215.640625 93.3125 Z M 215.640625 78.367188 "/>
</clipPath>
<clipPath id="clip-6">
<path clip-rule="nonzero" d="M 218 78.367188 L 235.566406 78.367188 L 235.566406 93.3125 L 218 93.3125 Z M 218 78.367188 "/>
</clipPath>
</defs>
<path fill-rule="nonzero" fill="rgb(83.999634%, 83.999634%, 83.999634%)" fill-opacity="1" d="M 202.996094 17.207031 L 113.445312 17.207031 C 111.246094 17.207031 109.460938 18.992188 109.460938 21.191406 L 109.460938 99.464844 C 109.460938 101.664062 111.246094 103.449219 113.445312 103.449219 L 202.996094 103.449219 C 205.195312 103.449219 206.980469 101.664062 206.980469 99.464844 L 206.980469 21.191406 C 206.980469 18.992188 205.195312 17.207031 202.996094 17.207031 Z M 202.996094 17.207031 "/>
<g clip-path="url(#clip-0)">
<path fill="none" stroke-width="0.79701" stroke-linecap="butt" stroke-linejoin="miter" stroke="rgb(0%, 0%, 0%)" stroke-opacity="1" stroke-dasharray="2.98883 2.98883" stroke-miterlimit="10" d="M 39.794094 43.120969 L -49.756687 43.120969 C -51.955906 43.120969 -53.741062 41.335812 -53.741062 39.136594 L -53.741062 -39.136844 C -53.741062 -41.336063 -51.955906 -43.121219 -49.756687 -43.121219 L 39.794094 -43.121219 C 41.993313 -43.121219 43.778469 -41.336063 43.778469 -39.136844 L 43.778469 39.136594 C 43.778469 41.335812 41.993313 43.120969 39.794094 43.120969 Z M 39.794094 43.120969 " transform="matrix(1, 0, 0, -1, 163.202, 60.328)"/>
</g>
<g fill="rgb(0%, 0%, 0%)" fill-opacity="1">
<use xlink:href="#glyph-0-0" x="148.183" y="13.289"/>
<use xlink:href="#glyph-0-1" x="155.027306" y="13.289"/>
</g>
<g fill="rgb(0%, 0%, 0%)" fill-opacity="1">
<use xlink:href="#glyph-0-2" x="161.473108" y="13.289"/>
</g>
<path fill="none" stroke-width="0.79701" stroke-linecap="round" stroke-linejoin="miter" stroke="rgb(0%, 0%, 0%)" stroke-opacity="1" stroke-miterlimit="10" d="M -46.686375 25.511594 L -67.385594 25.511594 " transform="matrix(1, 0, 0, -1, 163.202, 60.328)"/>
<path fill="none" stroke-width="0.79701" stroke-linecap="round" stroke-linejoin="miter" stroke="rgb(0%, 0%, 0%)" stroke-opacity="1" stroke-miterlimit="10" d="M 3.063625 25.511594 L -12.655125 25.511594 " transform="matrix(1, 0, 0, -1, 163.202, 60.328)"/>
<path fill="none" stroke-width="0.79701" stroke-linecap="round" stroke-linejoin="miter" stroke="rgb(0%, 0%, 0%)" stroke-opacity="1" stroke-miterlimit="10" d="M 52.438625 25.511594 L 38.26675 25.511594 " transform="matrix(1, 0, 0, -1, 163.202, 60.328)"/>
<path fill="none" stroke-width="0.79701" stroke-linecap="round" stroke-linejoin="miter" stroke="rgb(0%, 0%, 0%)" stroke-opacity="1" stroke-miterlimit="10" d="M -46.686375 8.503781 L -67.385594 8.503781 " transform="matrix(1, 0, 0, -1, 163.202, 60.328)"/>
<path fill="none" stroke-width="0.79701" stroke-linecap="round" stroke-linejoin="miter" stroke="rgb(0%, 0%, 0%)" stroke-opacity="1" stroke-miterlimit="10" d="M 3.063625 8.503781 L -12.655125 8.503781 " transform="matrix(1, 0, 0, -1, 163.202, 60.328)"/>
<path fill="none" stroke-width="0.79701" stroke-linecap="round" stroke-linejoin="miter" stroke="rgb(0%, 0%, 0%)" stroke-opacity="1" stroke-miterlimit="10" d="M 3.063625 8.503781 L -12.655125 8.503781 " transform="matrix(1, 0, 0, -1, 163.202, 60.328)"/>
<path fill="none" stroke-width="0.79701" stroke-linecap="round" stroke-linejoin="miter" stroke="rgb(0%, 0%, 0%)" stroke-opacity="1" stroke-miterlimit="10" d="M 52.438625 8.503781 L 38.26675 8.503781 " transform="matrix(1, 0, 0, -1, 163.202, 60.328)"/>
<path fill="none" stroke-width="0.79701" stroke-linecap="round" stroke-linejoin="miter" stroke="rgb(0%, 0%, 0%)" stroke-opacity="1" stroke-miterlimit="10" d="M -48.229344 -25.511844 L -67.385594 -25.511844 " transform="matrix(1, 0, 0, -1, 163.202, 60.328)"/>
<path fill="none" stroke-width="0.79701" stroke-linecap="round" stroke-linejoin="miter" stroke="rgb(0%, 0%, 0%)" stroke-opacity="1" stroke-miterlimit="10" d="M 3.063625 -25.511844 L -11.10825 -25.511844 " transform="matrix(1, 0, 0, -1, 163.202, 60.328)"/>
<path fill="none" stroke-width="0.79701" stroke-linecap="round" stroke-linejoin="miter" stroke="rgb(0%, 0%, 0%)" stroke-opacity="1" stroke-miterlimit="10" d="M 3.063625 -25.511844 L -11.10825 -25.511844 " transform="matrix(1, 0, 0, -1, 163.202, 60.328)"/>
<path fill="none" stroke-width="0.79701" stroke-linecap="round" stroke-linejoin="miter" stroke="rgb(0%, 0%, 0%)" stroke-opacity="1" stroke-miterlimit="10" d="M 52.438625 -25.511844 L 38.26675 -25.511844 " transform="matrix(1, 0, 0, -1, 163.202, 60.328)"/>
<g fill="rgb(0%, 0%, 0%)" fill-opacity="1">
<use xlink:href="#glyph-0-3" x="132.222" y="65.522"/>
</g>
<g fill="rgb(0%, 0%, 0%)" fill-opacity="1">
<use xlink:href="#glyph-0-3" x="132.222" y="69.507"/>
</g>
<g fill="rgb(0%, 0%, 0%)" fill-opacity="1">
<use xlink:href="#glyph-0-3" x="132.222" y="73.492"/>
</g>
<g fill="rgb(0%, 0%, 0%)" fill-opacity="1">
<use xlink:href="#glyph-0-3" x="224.293" y="65.522"/>
</g>
<g fill="rgb(0%, 0%, 0%)" fill-opacity="1">
<use xlink:href="#glyph-0-3" x="224.293" y="69.507"/>
</g>
<g fill="rgb(0%, 0%, 0%)" fill-opacity="1">
<use xlink:href="#glyph-0-3" x="224.293" y="73.492"/>
</g>
<g fill="rgb(0%, 0%, 0%)" fill-opacity="1">
<use xlink:href="#glyph-1-0" x="79.978" y="37.307"/>
</g>
<g fill="rgb(0%, 0%, 0%)" fill-opacity="1">
<use xlink:href="#glyph-2-0" x="82.745" y="37.307"/>
</g>
<g fill="rgb(0%, 0%, 0%)" fill-opacity="1">
<use xlink:href="#glyph-1-1" x="87.727" y="37.307"/>
</g>
<path fill-rule="nonzero" fill="rgb(98.588562%, 86.703491%, 69.999695%)" fill-opacity="1" stroke-width="0.79701" stroke-linecap="butt" stroke-linejoin="miter" stroke="rgb(0%, 0%, 0%)" stroke-opacity="1" stroke-miterlimit="10" d="M -46.686375 16.54675 L -12.655125 16.54675 L -12.655125 34.480344 L -46.686375 34.480344 Z M -46.686375 16.54675 " transform="matrix(1, 0, 0, -1, 163.202, 60.328)"/>
<g fill="rgb(0%, 0%, 0%)" fill-opacity="1">
<use xlink:href="#glyph-1-2" x="120.501" y="37.307"/>
</g>
<g fill="rgb(0%, 0%, 0%)" fill-opacity="1">
<use xlink:href="#glyph-2-1" x="128.651" y="37.307"/>
</g>
<g fill="rgb(0%, 0%, 0%)" fill-opacity="1">
<use xlink:href="#glyph-3-0" x="132.526" y="37.307"/>
</g>
<g fill="rgb(0%, 0%, 0%)" fill-opacity="1">
<use xlink:href="#glyph-4-0" x="138.22" y="38.801"/>
</g>
<g fill="rgb(0%, 0%, 0%)" fill-opacity="1">
<use xlink:href="#glyph-2-2" x="142.689" y="37.307"/>
</g>
<path fill-rule="nonzero" fill="rgb(69.999695%, 89.529419%, 97.645569%)" fill-opacity="1" stroke-width="0.79701" stroke-linecap="butt" stroke-linejoin="miter" stroke="rgb(0%, 0%, 0%)" stroke-opacity="1" stroke-miterlimit="10" d="M 3.063625 -35.617313 L 38.26675 -35.617313 L 38.26675 35.617062 L 3.063625 35.617062 Z M 3.063625 -35.617313 " transform="matrix(1, 0, 0, -1, 163.202, 60.328)"/>
<g fill="rgb(0%, 0%, 0%)" fill-opacity="1">
<use xlink:href="#glyph-3-1" x="173.571" y="63.956"/>
</g>
<g fill="rgb(0%, 0%, 0%)" fill-opacity="1">
<use xlink:href="#glyph-2-1" x="181.459" y="63.956"/>
</g>
<g fill="rgb(0%, 0%, 0%)" fill-opacity="1">
<use xlink:href="#glyph-3-2" x="185.384" y="61.327"/>
</g>
<g fill="rgb(0%, 0%, 0%)" fill-opacity="1">
<use xlink:href="#glyph-3-3" x="185.334" y="63.956"/>
</g>
<g fill="rgb(0%, 0%, 0%)" fill-opacity="1">
<use xlink:href="#glyph-2-2" x="190.287" y="63.956"/>
</g>
<path fill-rule="nonzero" fill="rgb(100%, 100%, 100%)" fill-opacity="1" d="M 215.640625 42.289062 L 235.566406 42.289062 L 235.566406 27.34375 L 215.640625 27.34375 Z M 215.640625 42.289062 "/>
<g clip-path="url(#clip-1)">
<path fill="none" stroke-width="0.79701" stroke-linecap="butt" stroke-linejoin="miter" stroke="rgb(0%, 0%, 0%)" stroke-opacity="1" stroke-miterlimit="10" d="M 55.274563 23.812375 C 58.848781 28.070187 65.958156 28.070187 69.532375 23.812375 " transform="matrix(1, 0, 0, -1, 163.202, 60.328)"/>
<path fill="none" stroke-width="0.79701" stroke-linecap="butt" stroke-linejoin="miter" stroke="rgb(0%, 0%, 0%)" stroke-opacity="1" stroke-miterlimit="10" d="M 62.403469 22.675656 L 67.251125 28.460812 " transform="matrix(1, 0, 0, -1, 163.202, 60.328)"/>
</g>
<path fill-rule="nonzero" fill="rgb(0%, 0%, 0%)" fill-opacity="1" d="M 231.6875 30.394531 C 231.488281 30.535156 230.554688 31.105469 229.84375 31.359375 L 231.058594 32.375 C 231.183594 31.632812 231.582031 30.613281 231.6875 30.394531 Z M 231.6875 30.394531 "/>
<g clip-path="url(#clip-2)">
<path fill="none" stroke-width="0.78903" stroke-linecap="butt" stroke-linejoin="miter" stroke="rgb(0%, 0%, 0%)" stroke-opacity="1" stroke-miterlimit="10" d="M 1.922676 -0.000768327 C 1.68692 0.0615794 0.65008 0.410736 -0.00122573 0.792503 L 0.00079494 -0.791016 C 0.649923 -0.410037 1.687269 -0.0604601 1.922676 -0.000768327 Z M 1.922676 -0.000768327 " transform="matrix(0.64235, -0.76636, -0.76636, -0.64235, 230.45188, 31.8675)"/>
</g>
<path fill="none" stroke-width="0.79701" stroke-linecap="butt" stroke-linejoin="miter" stroke="rgb(0%, 0%, 0%)" stroke-opacity="1" stroke-miterlimit="10" d="M 52.438625 18.038937 L 72.364406 18.038937 L 72.364406 32.98425 L 52.438625 32.98425 Z M 52.438625 18.038937 " transform="matrix(1, 0, 0, -1, 163.202, 60.328)"/>
<g fill="rgb(0%, 0%, 0%)" fill-opacity="1">
<use xlink:href="#glyph-1-0" x="79.978" y="54.315"/>
</g>
<g fill="rgb(0%, 0%, 0%)" fill-opacity="1">
<use xlink:href="#glyph-2-0" x="82.745" y="54.315"/>
</g>
<g fill="rgb(0%, 0%, 0%)" fill-opacity="1">
<use xlink:href="#glyph-1-1" x="87.727" y="54.315"/>
</g>
<path fill-rule="nonzero" fill="rgb(98.588562%, 86.703491%, 69.999695%)" fill-opacity="1" stroke-width="0.79701" stroke-linecap="butt" stroke-linejoin="miter" stroke="rgb(0%, 0%, 0%)" stroke-opacity="1" stroke-miterlimit="10" d="M -46.686375 -0.461063 L -12.655125 -0.461063 L -12.655125 17.472531 L -46.686375 17.472531 Z M -46.686375 -0.461063 " transform="matrix(1, 0, 0, -1, 163.202, 60.328)"/>
<g fill="rgb(0%, 0%, 0%)" fill-opacity="1">
<use xlink:href="#glyph-1-2" x="120.501" y="54.315"/>
</g>
<g fill="rgb(0%, 0%, 0%)" fill-opacity="1">
<use xlink:href="#glyph-2-1" x="128.651" y="54.315"/>
</g>
<g fill="rgb(0%, 0%, 0%)" fill-opacity="1">
<use xlink:href="#glyph-3-0" x="132.526" y="54.315"/>
</g>
<g fill="rgb(0%, 0%, 0%)" fill-opacity="1">
<use xlink:href="#glyph-4-1" x="138.22" y="55.809"/>
</g>
<g fill="rgb(0%, 0%, 0%)" fill-opacity="1">
<use xlink:href="#glyph-2-2" x="142.689" y="54.315"/>
</g>
<path fill-rule="nonzero" fill="rgb(100%, 100%, 100%)" fill-opacity="1" d="M 215.640625 59.296875 L 235.566406 59.296875 L 235.566406 44.351562 L 215.640625 44.351562 Z M 215.640625 59.296875 "/>
<g clip-path="url(#clip-3)">
<path fill="none" stroke-width="0.79701" stroke-linecap="butt" stroke-linejoin="miter" stroke="rgb(0%, 0%, 0%)" stroke-opacity="1" stroke-miterlimit="10" d="M 55.274563 6.804562 C 58.848781 11.062375 65.958156 11.062375 69.532375 6.804562 " transform="matrix(1, 0, 0, -1, 163.202, 60.328)"/>
<path fill="none" stroke-width="0.79701" stroke-linecap="butt" stroke-linejoin="miter" stroke="rgb(0%, 0%, 0%)" stroke-opacity="1" stroke-miterlimit="10" d="M 62.403469 5.667844 L 67.251125 11.453 " transform="matrix(1, 0, 0, -1, 163.202, 60.328)"/>
</g>
<path fill-rule="nonzero" fill="rgb(0%, 0%, 0%)" fill-opacity="1" d="M 231.6875 47.402344 C 231.488281 47.542969 230.554688 48.113281 229.84375 48.367188 L 231.058594 49.386719 C 231.183594 48.644531 231.582031 47.621094 231.6875 47.402344 Z M 231.6875 47.402344 "/>
<g clip-path="url(#clip-4)">
<path fill="none" stroke-width="0.78903" stroke-linecap="butt" stroke-linejoin="miter" stroke="rgb(0%, 0%, 0%)" stroke-opacity="1" stroke-miterlimit="10" d="M 1.923004 -0.000493701 C 1.687248 0.061854 0.650408 0.41101 -0.000898082 0.792778 L -0.00187125 -0.793251 C 0.647256 -0.412272 1.687596 -0.0601854 1.923004 -0.000493701 Z M 1.923004 -0.000493701 " transform="matrix(0.64235, -0.76636, -0.76636, -0.64235, 230.45188, 48.87574)"/>
</g>
<path fill="none" stroke-width="0.79701" stroke-linecap="butt" stroke-linejoin="miter" stroke="rgb(0%, 0%, 0%)" stroke-opacity="1" stroke-miterlimit="10" d="M 52.438625 1.031125 L 72.364406 1.031125 L 72.364406 15.976437 L 52.438625 15.976437 Z M 52.438625 1.031125 " transform="matrix(1, 0, 0, -1, 163.202, 60.328)"/>
<g fill="rgb(0%, 0%, 0%)" fill-opacity="1">
<use xlink:href="#glyph-0-3" x="84.498" y="65.522"/>
</g>
<g fill="rgb(0%, 0%, 0%)" fill-opacity="1">
<use xlink:href="#glyph-0-3" x="84.498" y="69.507"/>
</g>
<g fill="rgb(0%, 0%, 0%)" fill-opacity="1">
<use xlink:href="#glyph-0-3" x="84.498" y="73.492"/>
</g>
<g fill="rgb(0%, 0%, 0%)" fill-opacity="1">
<use xlink:href="#glyph-1-0" x="79.978" y="88.331"/>
</g>
<g fill="rgb(0%, 0%, 0%)" fill-opacity="1">
<use xlink:href="#glyph-2-0" x="82.745" y="88.331"/>
</g>
<g fill="rgb(0%, 0%, 0%)" fill-opacity="1">
<use xlink:href="#glyph-1-1" x="87.727" y="88.331"/>
</g>
<path fill-rule="nonzero" fill="rgb(98.588562%, 86.703491%, 69.999695%)" fill-opacity="1" stroke-width="0.79701" stroke-linecap="butt" stroke-linejoin="miter" stroke="rgb(0%, 0%, 0%)" stroke-opacity="1" stroke-miterlimit="10" d="M -48.229344 -34.480594 L -11.10825 -34.480594 L -11.10825 -16.547 L -48.229344 -16.547 Z M -48.229344 -34.480594 " transform="matrix(1, 0, 0, -1, 163.202, 60.328)"/>
<g fill="rgb(0%, 0%, 0%)" fill-opacity="1">
<use xlink:href="#glyph-1-2" x="118.958" y="88.331"/>
</g>
<g fill="rgb(0%, 0%, 0%)" fill-opacity="1">
<use xlink:href="#glyph-2-1" x="127.108" y="88.331"/>
</g>
<g fill="rgb(0%, 0%, 0%)" fill-opacity="1">
<use xlink:href="#glyph-3-0" x="130.982" y="88.331"/>
</g>
<g fill="rgb(0%, 0%, 0%)" fill-opacity="1">
<use xlink:href="#glyph-5-0" x="136.676" y="89.825"/>
</g>
<g fill="rgb(0%, 0%, 0%)" fill-opacity="1">
<use xlink:href="#glyph-2-2" x="144.233" y="88.331"/>
</g>
<path fill-rule="nonzero" fill="rgb(100%, 100%, 100%)" fill-opacity="1" d="M 215.640625 93.3125 L 235.566406 93.3125 L 235.566406 78.367188 L 215.640625 78.367188 Z M 215.640625 93.3125 "/>
<g clip-path="url(#clip-5)">
<path fill="none" stroke-width="0.79701" stroke-linecap="butt" stroke-linejoin="miter" stroke="rgb(0%, 0%, 0%)" stroke-opacity="1" stroke-miterlimit="10" d="M 55.274563 -27.214969 C 58.848781 -22.95325 65.958156 -22.95325 69.532375 -27.214969 " transform="matrix(1, 0, 0, -1, 163.202, 60.328)"/>
<path fill="none" stroke-width="0.79701" stroke-linecap="butt" stroke-linejoin="miter" stroke="rgb(0%, 0%, 0%)" stroke-opacity="1" stroke-miterlimit="10" d="M 62.403469 -28.347781 L 67.251125 -22.562625 " transform="matrix(1, 0, 0, -1, 163.202, 60.328)"/>
</g>
<path fill-rule="nonzero" fill="rgb(0%, 0%, 0%)" fill-opacity="1" d="M 231.6875 81.417969 C 231.488281 81.558594 230.554688 82.128906 229.84375 82.382812 L 231.058594 83.402344 C 231.183594 82.660156 231.582031 81.636719 231.6875 81.417969 Z M 231.6875 81.417969 "/>
<g clip-path="url(#clip-6)">
<path fill="none" stroke-width="0.78903" stroke-linecap="butt" stroke-linejoin="miter" stroke="rgb(0%, 0%, 0%)" stroke-opacity="1" stroke-miterlimit="10" d="M 1.923682 0.0000748236 C 1.687926 0.0624226 0.651086 0.411579 -0.0002198 0.793346 L -0.00119296 -0.792682 C 0.647935 -0.411703 1.688275 -0.0596169 1.923682 0.0000748236 Z M 1.923682 0.0000748236 " transform="matrix(0.64235, -0.76636, -0.76636, -0.64235, 230.45188, 82.89225)"/>
</g>
<path fill="none" stroke-width="0.79701" stroke-linecap="butt" stroke-linejoin="miter" stroke="rgb(0%, 0%, 0%)" stroke-opacity="1" stroke-miterlimit="10" d="M 52.438625 -32.9845 L 72.364406 -32.9845 L 72.364406 -18.039188 L 52.438625 -18.039188 Z M 52.438625 -32.9845 " transform="matrix(1, 0, 0, -1, 163.202, 60.328)"/>
</svg>
